<svg xmlns="http://www.w3.org/2000/svg" viewBox="0 0 44.36588 56.99954" width="57" height="57">
  <defs>
    <style>
      .cls-1 {
        fill: #d2d2d2;
      }
    </style>
  </defs>
  <path class="cls-1" d="M48.85667,44.58508a23.31526,23.31526,0,0,1-20.1718,11.7266,22.83638,22.83638,0,0,1-3.0225-.2012,1.77592,1.77592,0,0,1-.5674.5908,1.85509,1.85509,0,0,1-1.3838.2608s.0083-.0088-.0097-.0069l-.0083-.0078a1.70531,1.70531,0,0,1-.7886-.3506,1.79358,1.79358,0,0,1-.5283-.7187,1.72287,1.72287,0,0,1-.1333-.8975,1.91207,1.91207,0,0,1,.309-.8486c.0625-.0752.1099-.1319.1719-.2071a2.06531,2.06531,0,0,1,.6465-.4443,1.78841,1.78841,0,0,1,.9854-.1172c.017-.001.0341-.0039.0439.0049a1.77337,1.77337,0,0,1,1.1978.7197,1.87843,1.87843,0,0,1,.2983.6934,21.92738,21.92738,0,0,0,21.792-10.8662.67363.67363,0,1,1,1.1689.6699Zm1.8213-27.8926a1.8993,1.8993,0,0,1-.4355,1.3423,1.832,1.832,0,0,1-1.2471.6426,1.78618,1.78618,0,0,1-1.9521-1.6406l-.0098-.0079a1.79235,1.79235,0,0,1,.3096-1.1625A21.35626,21.35626,0,0,0,28.65167,7.962a21.782,21.782,0,0,0-13.0289,5.94c-.186.3652-.3593.7368-.5253,1.1118a23.07447,23.07447,0,0,1,18.0629-4.4463,22.81766,22.81766,0,0,1,13.4073,7.7075.67406.67406,0,0,1-1.0293.8706,21.29651,21.29651,0,0,0-3.4287-3.2412,17.097,17.097,0,0,1,3.2939,3.92.67412.67412,0,0,1-1.1504.7031,15.91908,15.91908,0,0,0-.9258-1.3472c.252.4541.4893.9195.7012,1.4009a.67336.67336,0,1,1-1.2324.543,15.45263,15.45263,0,0,0-6.1162-6.9815,15.80944,15.80944,0,0,0-10.8531-.2783,16.11585,16.11585,0,0,0-10.4765,19.3418l.0117.0273a17.431,17.431,0,0,1,22.8843-17.0737.67952.67952,0,0,1-.4346,1.2876,15.66219,15.66219,0,0,0-5.041-.8159,1.93909,1.93909,0,0,1,.251.5918,1.971,1.971,0,0,1-.2159,1.4829,2.1022,2.1022,0,0,1-1.1533.9658l-.0166.2715h-.0176a3.3595,3.3595,0,0,1-1.0341-.3184c-.3086-.1132-.5723-.5795-.7803-.8227a9.44313,9.44313,0,0,0-5.9424,11.1138,9.178,9.178,0,0,0,11.2608,6.6386.67375.67375,0,0,1,.3408,1.3037,10.72667,10.72667,0,0,1-2.7158.3506,10.52019,10.52019,0,0,1-10.1934-7.9648,10.814,10.814,0,0,1-.2974-1.9722,2.00275,2.00275,0,0,1-.3427.314,1.9084,1.9084,0,0,1-.5699.2441,9.16952,9.16952,0,0,0,1.4742,6.1738,9.05972,9.05972,0,0,0,5.853,3.9034,9.25042,9.25042,0,0,0,5.5752-.6231.67354.67354,0,1,1,.5439,1.2324,10.60521,10.60521,0,0,1-6.3794.7139,10.39989,10.39989,0,0,1-6.6601-4.4033,1.8033,1.8033,0,0,1-.0806.4092,1.78267,1.78267,0,0,1-.3511.6045,9.071,9.071,0,0,0,4.7036,3.997,9.20969,9.20969,0,0,0,7.1358-.2558,9.39941,9.39941,0,0,0,4.1465-3.6905.67427.67427,0,0,1,1.1513.7022,10.79632,10.79632,0,0,1-9.1767,5.1894,10.54241,10.54241,0,0,1-3.7329-.6845,10.41768,10.41768,0,0,1-5.419-4.6299,1.84442,1.84442,0,0,1-.8974-.1074,1.80015,1.80015,0,0,1-.9839-1,.01038.01038,0,0,0-.001-.0166c-.0098-.0069-.019-.0157-.0117-.0244a1.82755,1.82755,0,0,1-.1445-.8457,1.86794,1.86794,0,0,1,.2817-.8721l.0073-.0098a1.79942,1.79942,0,0,1,.1553-.1855,1.56613,1.56613,0,0,1,.5688-.4453,1.81159,1.81159,0,0,1,1.6387-.001,10.49839,10.49839,0,0,1-.7344-5.3081,1.79021,1.79021,0,0,1-.8735-1.9336l-.0088-.0064a1.80537,1.80537,0,0,1,.291-.6748c.0313-.0381.0615-.0757.0928-.1128a1.8198,1.8198,0,0,1,.8989-.5991,1.79935,1.79935,0,0,1,1.9673.6475,10.83146,10.83146,0,0,1,7.0215-8.4556,1.79341,1.79341,0,0,1,.1387-.5884A16.11159,16.11159,0,0,0,17.597,27.41908a15.846,15.846,0,0,0-.4995,8.7832,21.39586,21.39586,0,0,0,8.9379,7.2998,15.89241,15.89241,0,0,0,12.1895-3.4971.67424.67424,0,0,1,.8535,1.044,17.68849,17.68849,0,0,1-3.4092,2.1845c.0547.0215.1123.0371.166.0635a1.65308,1.65308,0,0,1,.5557.4229,16.09577,16.09577,0,0,0,6.1797-4.3545.67372.67372,0,1,1,1.0137.8877,17.43479,17.43479,0,0,1-6.753,4.7392,1.55936,1.55936,0,0,1-.0205.1905,22.20074,22.20074,0,0,0,3.6162-.6807.67155.67155,0,0,1,.8047.4033,22.26464,22.26464,0,0,0,4.0137-3.3935.674.674,0,0,1,.9863.9189,23.54372,23.54372,0,0,1-3.207,2.8594.67251.67251,0,0,1,.1191,1.25,23.03838,23.03838,0,0,1-6.6884,2.1513,23.28906,23.28906,0,0,1-6.4131,1.1319q-.3999.0132-.7998.0127a22.57451,22.57451,0,0,1-15.022-5.6729,21.78246,21.78246,0,0,0,2.1709,2.1016,21.29437,21.29437,0,0,0,15.7778,4.9141.681.681,0,0,1,.7325.6084.67279.67279,0,0,1-.6094.7314q-1.084.1011-2.1621.1016a22.717,22.717,0,0,1-22.022-17.1788,22.92164,22.92164,0,0,1-1.39306-5.4462.67283.67283,0,0,1-.38672-.7354c.06787-.3657.14551-.7261.23047-1.083a23.34753,23.34753,0,0,1,14.147-22.582,23.12075,23.12075,0,0,1,7.3793-3.93848,1.72438,1.72438,0,0,1,.3799-.94678,1.851,1.851,0,0,1,2.3535-.47168,1.74851,1.74851,0,0,1,.8477,1.1084,1.88971,1.88971,0,0,1-.1846,1.37793,2.0092,2.0092,0,0,1-.1875.2544,22.81764,22.81764,0,0,1,5.5147.17675c.0215-.03808.0439-.07617.0693-.1123a1.83153,1.83153,0,0,1,.8184-.6333,1.80126,1.80126,0,0,1,2.1826.68017,1.8567,1.8567,0,0,1,.2607,1.36622,1.821,1.821,0,0,1-.7871,1.16357,1.93241,1.93241,0,0,1-.2373.13086,22.67009,22.67009,0,0,1,5.4961,3.5083,1.86468,1.86468,0,0,1,.6777-.19385,1.82827,1.82827,0,0,1,.8233,3.50632,22.79469,22.79469,0,0,1,2.3252,2.5093,1.78525,1.78525,0,0,1,.9814.0366,1.81468,1.81468,0,0,1,.8692.5908A1.83669,1.83669,0,0,1,50.678,16.69248ZM36.55987,4.47912c-.629-.09521-1.2569-.16015-1.8809-.20068q1.002.21974,1.9775.52734l-.0058-.01171A1.52648,1.52648,0,0,1,36.55987,4.47912Zm-11.045-.33935c.2173-.041.4366-.07178.6543-.10547a23.08493,23.08493,0,0,1,2.67-.7041,1.76853,1.76853,0,0,1-.4014-.37256A21.89464,21.89464,0,0,0,25.51487,4.13977ZM12.64477,29.757a22.911,22.911,0,0,1-.5908-8.7573c-.063.2622-.1274.5239-.1826.7905a21.5416,21.5416,0,0,0,5.8462,19.6015l.0044-.0175c-.2207-.3799-.4341-.7647-.628-1.1631a17.18132,17.18132,0,0,1-1.248-3.4531,22.5439,22.5439,0,0,1-1.1919-1.9522.67347.67347,0,0,1-.353-.3935c-.0786-.2432-.1485-.4874-.2154-.7315A23.1825,23.1825,0,0,1,12.64477,29.757Zm6.1026,10.4502c-.0987-.0938-.1939-.1944-.2906-.293.0596.1172.1182.2334.1812.3477C18.67357,40.24428,18.70977,40.22478,18.74737,40.20718ZM8.1399,23.63338c.08985-.1928.187-.3808.28223-.5693a23.44126,23.44126,0,0,1,4.90384-8.7187,23.35676,23.35676,0,0,1,2.5537-3.5147q.5955-.8811,1.269-1.70947a22.22083,22.22083,0,0,0-3.373,2.95507A21.87317,21.87317,0,0,0,8.1399,23.63338Zm6.50047,19.0972a21.21525,21.21525,0,0,0,10.3335,5.3281,16.866,16.866,0,0,1-2.9077-1.7783A22.80908,22.80908,0,0,1,10.428,22.21058q-.3984.65985-.7505,1.3511a21.68886,21.68886,0,0,0-.28708,11.457A21.19629,21.19629,0,0,0,14.64037,42.73058Zm13.1133,5.665-.0063.0293-.0049.0079c.0854.0058.1684.0107.2539.0156C27.91477,48.43078,27.83477,48.41418,27.75367,48.39558Zm11.1528-2.1591a23.12714,23.12714,0,0,1-3.25.3867c-.0273.0107-.0537.0273-.082.0361a1.76712,1.76712,0,0,1-1.1162.0283c-.0352-.0127-.0684-.0293-.1065-.0429a22.57231,22.57231,0,0,1-8.6772-1.836,17.00776,17.00776,0,0,1-4.8203-1.4453,15.36049,15.36049,0,0,0,1.937,1.7754,21.58935,21.58935,0,0,0,13.3379,2.2422A21.79455,21.79455,0,0,0,38.90647,46.23648Zm-8.6338-1.3819a21.08928,21.08928,0,0,0,2.9249.3994,2.07435,2.07435,0,0,1-.0254-.2763,1.81178,1.81178,0,0,1,.1865-.8115A17.10574,17.10574,0,0,1,30.27267,44.85458Zm-1.5205-33.0278a16.10378,16.10378,0,0,0-14.292,8.2358.6755.6755,0,0,1-.9169.2583c-.0098-.0058-.0171-.0127-.0264-.0185a21.58329,21.58329,0,0,0,.0273,7.2519,17.43675,17.43675,0,0,1,15.208-15.7275Zm-14.6108,5.7705c-.0742.2466-.1406.4951-.2061.7451a17.48586,17.48586,0,0,1,1.2354-1.6616Q14.64252,17.12238,14.14137,17.59728Zm29.481-7.0259a1.64812,1.64812,0,0,1,.0869-.312A21.28253,21.28253,0,0,0,29.02077,5.1095a21.80056,21.80056,0,0,0-2.5415.23974A22.10816,22.10816,0,0,0,18.782,9.80969a23.03879,23.03879,0,0,1,9.7456-3.18994A22.76841,22.76841,0,0,1,43.62237,10.57138Z" transform="translate(-6.31706 -0.00023)"/>
</svg>
